<svg width="26" height="24" viewBox="0 0 26 24" fill="none" xmlns="http://www.w3.org/2000/svg">
<path
        fill-rule="evenodd"
        clip-rule="evenodd"
        d="M10.3825 0.632946C10.775 0.455685 11.2248 0.455685 11.6173 0.632946C15.0006 2.16091 16.4821 2.63727 20.2258 3.30881C20.9058 3.43077 21.4145 4.00135 21.458 4.69079C21.6095 7.0921 21.4101 9.21192 20.9642 11.0667C19.7375 10.8961 18.4872 11.054 17.341 11.5247C16.1782 12.0022 15.1654 12.784 14.409 13.788C13.6527 14.792 13.1806 15.9811 13.0424 17.2305C12.9068 18.4567 13.0977 19.6966 13.5952 20.8247C12.5909 21.3009 11.5923 21.5729 10.7449 21.5729C9.79705 21.5729 8.65268 21.1801 7.55287 20.5459C6.41383 19.8891 5.19164 18.8996 4.08929 17.5399C1.86535 14.7967 0.169053 10.5983 0.541781 4.69079C0.58528 4.00135 1.09401 3.43077 1.77396 3.30881C5.51768 2.63727 6.99917 2.16091 10.3825 0.632946ZM3.49176 6.03992C3.4364 10.6 4.82965 13.6894 6.41966 15.6506C7.28994 16.7241 8.22996 17.4733 9.05148 17.9471C9.91222 18.4434 10.5267 18.5729 10.7449 18.5729C10.8134 18.5729 10.8989 18.5661 10.9999 18.5506V3.64342L10.9999 3.64341C8.16232 4.90098 6.47009 5.45835 3.49176 6.03992Z"
        fill="#027E46"
    />
<path
        fill-rule="evenodd"
        clip-rule="evenodd"
        d="M19.9999 12.4615C16.9307 12.4615 14.4614 14.9308 14.4614 18C14.4614 21.0692 16.9307 23.5385 19.9999 23.5385C23.0691 23.5385 25.5383 21.0692 25.5383 18C25.5383 14.9308 23.0691 12.4615 19.9999 12.4615ZM23.0922 16.6154L19.5614 20.1923C19.423 20.3308 19.1922 20.3308 19.0537 20.1923L17.1153 18.2308C16.9768 18.0923 16.9768 17.8615 17.1153 17.7231L17.623 17.2154C17.7614 17.0769 17.9922 17.0769 18.1307 17.2154L19.146 18.2539C19.2383 18.3462 19.3999 18.3462 19.4922 18.2539L22.0768 15.5769C22.2153 15.4385 22.446 15.4385 22.5845 15.5769L23.0922 16.0846C23.2537 16.2231 23.2537 16.4539 23.0922 16.6154Z"
        fill="#027E46"
    />
</svg>
